<mxfile host="app.diagrams.net" agent="Mozilla/5.0 (Windows NT 10.0; Win64; x64) AppleWebKit/537.36 (KHTML, like Gecko) Chrome/138.0.0.0 Safari/537.36 OPR/122.0.0.0" version="28.2.5">
  <diagram name="Página-1" id="0DDq4Op6VfTNFtq13c_w">
    <mxGraphModel dx="1280" dy="528" grid="1" gridSize="10" guides="1" tooltips="1" connect="1" arrows="1" fold="1" page="1" pageScale="1" pageWidth="827" pageHeight="1169" math="0" shadow="0">
      <root>
        <mxCell id="0" />
        <mxCell id="1" parent="0" />
        <mxCell id="nMXzzmbeyMNV9SAZg80v-11" value="" style="rounded=0;whiteSpace=wrap;html=1;" vertex="1" parent="1">
          <mxGeometry x="170" y="40" width="260" height="470" as="geometry" />
        </mxCell>
        <mxCell id="nMXzzmbeyMNV9SAZg80v-4" value="" style="edgeStyle=orthogonalEdgeStyle;rounded=0;orthogonalLoop=1;jettySize=auto;html=1;" edge="1" parent="1" source="nMXzzmbeyMNV9SAZg80v-1" target="nMXzzmbeyMNV9SAZg80v-2">
          <mxGeometry relative="1" as="geometry" />
        </mxCell>
        <mxCell id="nMXzzmbeyMNV9SAZg80v-5" value="" style="edgeStyle=orthogonalEdgeStyle;rounded=0;orthogonalLoop=1;jettySize=auto;html=1;" edge="1" parent="1" source="nMXzzmbeyMNV9SAZg80v-2" target="nMXzzmbeyMNV9SAZg80v-3">
          <mxGeometry relative="1" as="geometry" />
        </mxCell>
        <mxCell id="nMXzzmbeyMNV9SAZg80v-7" value="" style="edgeStyle=orthogonalEdgeStyle;rounded=0;orthogonalLoop=1;jettySize=auto;html=1;" edge="1" parent="1" source="nMXzzmbeyMNV9SAZg80v-3" target="nMXzzmbeyMNV9SAZg80v-6">
          <mxGeometry relative="1" as="geometry" />
        </mxCell>
        <mxCell id="nMXzzmbeyMNV9SAZg80v-3" value="Almacén" style="rounded=1;whiteSpace=wrap;html=1;" vertex="1" parent="1">
          <mxGeometry x="250" y="230" width="120" height="60" as="geometry" />
        </mxCell>
        <mxCell id="nMXzzmbeyMNV9SAZg80v-10" value="" style="edgeStyle=orthogonalEdgeStyle;rounded=0;orthogonalLoop=1;jettySize=auto;html=1;" edge="1" parent="1" source="nMXzzmbeyMNV9SAZg80v-6" target="nMXzzmbeyMNV9SAZg80v-9">
          <mxGeometry relative="1" as="geometry" />
        </mxCell>
        <mxCell id="nMXzzmbeyMNV9SAZg80v-6" value="Subalmacén" style="rounded=1;whiteSpace=wrap;html=1;" vertex="1" parent="1">
          <mxGeometry x="250" y="330" width="120" height="60" as="geometry" />
        </mxCell>
        <mxCell id="nMXzzmbeyMNV9SAZg80v-9" value="Ubicaciones" style="rounded=1;whiteSpace=wrap;html=1;" vertex="1" parent="1">
          <mxGeometry x="250" y="430" width="120" height="60" as="geometry" />
        </mxCell>
        <mxCell id="nMXzzmbeyMNV9SAZg80v-12" value="WMS" style="rounded=0;whiteSpace=wrap;html=1;fillColor=#FFFFFF;" vertex="1" parent="1">
          <mxGeometry x="40" y="40" width="130" height="170" as="geometry" />
        </mxCell>
        <mxCell id="nMXzzmbeyMNV9SAZg80v-24" style="edgeStyle=orthogonalEdgeStyle;rounded=0;orthogonalLoop=1;jettySize=auto;html=1;" edge="1" parent="1" source="nMXzzmbeyMNV9SAZg80v-1" target="nMXzzmbeyMNV9SAZg80v-2">
          <mxGeometry relative="1" as="geometry" />
        </mxCell>
        <mxCell id="nMXzzmbeyMNV9SAZg80v-1" value="Empresa" style="rounded=1;whiteSpace=wrap;html=1;" vertex="1" parent="1">
          <mxGeometry x="250" y="50" width="120" height="60" as="geometry" />
        </mxCell>
        <mxCell id="nMXzzmbeyMNV9SAZg80v-2" value="Negocio" style="rounded=1;whiteSpace=wrap;html=1;" vertex="1" parent="1">
          <mxGeometry x="250" y="140" width="120" height="60" as="geometry" />
        </mxCell>
        <mxCell id="nMXzzmbeyMNV9SAZg80v-27" value="" style="endArrow=none;dashed=1;html=1;dashPattern=1 3;strokeWidth=2;rounded=0;exitX=-0.002;exitY=0.383;exitDx=0;exitDy=0;exitPerimeter=0;entryX=0.999;entryY=0.384;entryDx=0;entryDy=0;entryPerimeter=0;" edge="1" parent="1">
          <mxGeometry width="50" height="50" relative="1" as="geometry">
            <mxPoint x="170.00000000000003" y="210.0000000000001" as="sourcePoint" />
            <mxPoint x="430.26" y="210.51999999999998" as="targetPoint" />
          </mxGeometry>
        </mxCell>
        <mxCell id="nMXzzmbeyMNV9SAZg80v-29" value="La empresa tiene varios negocios.&lt;br data-end=&quot;163&quot; data-start=&quot;160&quot;&gt;&lt;br&gt;Cada negocio trabaja con uno o varios almacenes.&lt;br data-end=&quot;216&quot; data-start=&quot;213&quot;&gt;&lt;br&gt;Dentro de cada almacén hay subalmacenes (como secciones o áreas más pequeñas).&lt;br data-end=&quot;299&quot; data-start=&quot;296&quot;&gt;&lt;br&gt;Y dentro de esos subalmacenes, las cosas se guardan en lugares específicos llamados &lt;em style=&quot;&quot; data-end=&quot;398&quot; data-start=&quot;385&quot;&gt;ubicaciones&lt;/em&gt;.&lt;div&gt;&lt;br&gt;&lt;/div&gt;&lt;div&gt;&lt;div&gt;La forma en que funciona la SICIA2 está basada en una regla principal: &lt;strong data-end=&quot;284&quot; data-start=&quot;253&quot;&gt;Empresa → Negocio.&lt;/strong&gt;&lt;/div&gt;&lt;div&gt;&lt;strong data-end=&quot;284&quot; data-start=&quot;253&quot;&gt;&lt;br&gt;&lt;/strong&gt;&lt;/div&gt;&lt;div&gt;&lt;strong data-end=&quot;284&quot; data-start=&quot;253&quot;&gt;Todos los movimientos(remisiones, ordenes de compra ) que involucran inventario están ligados al NEGOCIO.&lt;/strong&gt;&lt;/div&gt;&lt;div&gt;&lt;br&gt;&lt;/div&gt;&lt;/div&gt;" style="shape=note;whiteSpace=wrap;html=1;backgroundOutline=1;fontColor=#000000;darkOpacity=0.05;fillColor=#FFF9B2;strokeColor=none;fillStyle=solid;direction=west;gradientDirection=north;gradientColor=#FFF2A1;shadow=1;size=20;pointerEvents=1;align=left;" vertex="1" parent="1">
          <mxGeometry x="457" y="40" width="370" height="280" as="geometry" />
        </mxCell>
      </root>
    </mxGraphModel>
  </diagram>
</mxfile>
